# xmcd
# 
# Track frame offsets:
#     150
#     17312
#     26306
#     52721
#     68162
#     81703
#     94732
#     117167
#     129948
#     171497
#     181027
#     192415
#     200179
#     219514
#     238123
#     265720
# 
# Disc length: 3783
# 
# Revision: 0
# Processed by: cddbd v1.5.2PL0 Copyright (c) Steve Scherf et al.
# Submitted via: fre:ac v1.0.27
# 
DISCID=d70ec510
DTITLE=divers - Najpiekniejsze Koledy
DYEAR=0
DGENRE=Folklore
TTITLE0=Wsrod nocnej ciszy
TTITLE1=Pojdymy wszyscy do stajenki
TTITLE2=Gdy sie Chrystus rodzi
TTITLE3=Dzisiaj w Betlejem
TTITLE4=Aniol pasterzom mowil
TTITLE5=Przybiezeli do Betlejem
TTITLE6=Do szopy, hej pasterze
TTITLE7=Lulajze Jezuniu
TTITLE8=Oj maluski maluski
TTITLE9=W zlobie lezy
TTITLE10=Mizerna cicha
TTITLE11=Z narodzenia Pana
TTITLE12=Jezus malusienki
TTITLE13=Medrcy swiata
TTITLE14=Gdy sliczna Panna
TTITLE15=Bog sie rodzi
EXTD=
EXTT0=
EXTT1=
EXTT2=
EXTT3=
EXTT4=
EXTT5=
EXTT6=
EXTT7=
EXTT8=
EXTT9=
EXTT10=
EXTT11=
EXTT12=
EXTT13=
EXTT14=
EXTT15=
PLAYORDER=
